<?xml version="1.0" encoding="UTF-8"?>
<svg width="1327px" height="650px" viewBox="0 0 1327 650" version="1.1" xmlns="http://www.w3.org/2000/svg" xmlns:xlink="http://www.w3.org/1999/xlink">
    <!-- Generator: Sketch 48.2 (47327) - http://www.bohemiancoding.com/sketch -->
    <title>afterparty</title>
    <desc>Created with Sketch.</desc>
    <defs></defs>
    <g id="Page-1" stroke="none" stroke-width="1" fill="none" fill-rule="evenodd" opacity="0.706351902">
        <g id="afterparty">
            <path d="M648.5,613.5 L621,644" id="Shape" stroke="#F77D72" stroke-width="11" stroke-linecap="round"></path>
            <circle id="Oval" fill="#F77D72" fill-rule="nonzero" cx="403.5" cy="375.5" r="9.5"></circle>
            <circle id="Oval" fill="#800020" fill-rule="nonzero" cx="394.5" cy="619.5" r="9.5"></circle>
            <circle id="Oval" fill="#800020" fill-rule="nonzero" cx="914.5" cy="618.5" r="12.5"></circle>
            <circle id="Oval" fill="#2C2E4C" fill-rule="nonzero" cx="434" cy="9" r="9"></circle>
            <path d="M927,451 L943.95,500.78" id="Shape" stroke="#800020" stroke-width="15" stroke-linecap="round"></path>
            <path d="M192.96,623.95 L229.08,643.49" id="Shape" stroke="#F77D72" stroke-width="11" stroke-linecap="round"></path>
            <path d="M394.69,475.43 L367.45,520.42" id="Shape" stroke="#575C79" stroke-width="15" stroke-linecap="round"></path>
            <circle id="Oval" fill="#800020" fill-rule="nonzero" cx="27.5" cy="633.5" r="12.5"></circle>
            <circle id="Oval" fill="#800020" fill-rule="nonzero" cx="388" cy="189" r="7"></circle>
            <circle id="Oval" fill="#F77D72" fill-rule="nonzero" cx="935" cy="159" r="8"></circle>
            <circle id="Oval" fill="#F77D72" fill-rule="nonzero" cx="799.5" cy="30.5" r="9.5"></circle>
            <path d="M282.5,130.5 L310,161" id="Shape" stroke="#F77D72" stroke-width="11" stroke-linecap="round"></path>
            <circle id="Oval" fill="#2C2E4C" fill-rule="nonzero" cx="248.5" cy="60.5" r="10.5"></circle>
            <circle id="Oval" fill="#F77D72" fill-rule="nonzero" cx="10.5" cy="151.5" r="9.5"></circle>
            <circle id="Oval" fill="#575C79" fill-rule="nonzero" cx="44" cy="30" r="8"></circle>
            <circle id="Oval" fill="#800020" fill-rule="nonzero" cx="217.5" cy="216.5" r="9.5"></circle>
            <circle id="Oval" fill="#800020" fill-rule="nonzero" cx="39.5" cy="261.5" r="12.5"></circle>
            <circle id="Oval" fill="#575C79" fill-rule="nonzero" cx="195.5" cy="369.5" r="9.5"></circle>
            <circle id="Oval" fill="#2C2E4C" fill-rule="nonzero" cx="333" cy="307" r="9"></circle>
            <path d="M152,254 L135.05,303.78" id="Shape" stroke="#800020" stroke-width="15" stroke-linecap="round"></path>
            <path d="M49.22,408.71 L64.75,446.73" id="Shape" stroke="#F77D72" stroke-width="11" stroke-linecap="round"></path>
            <path d="M298.93,369.78 L294.41,410.6" id="Shape" stroke="#F77D72" stroke-width="11" stroke-linecap="round"></path>
            <path d="M183.38,534.8 L162.48,583.06" id="Shape" stroke="#2C2E4C" stroke-width="15" stroke-linecap="round"></path>
            <path d="M138.31,38.43 L165.55,83.42" id="Shape" stroke="#F77D72" stroke-width="15" stroke-linecap="round"></path>
            <circle id="Oval" fill="#800020" fill-rule="nonzero" cx="277.5" cy="485.5" r="12.5"></circle>
            <path d="M314.61,613.49 C300.74,606.83 310.2,587.12 296.33,580.46 C282.46,573.8 273,593.52 259.12,586.86 C245.25,580.2 254.71,560.49 240.83,553.83" id="Shape" stroke="#F77D72" stroke-width="13" stroke-linecap="round"></path>
            <circle id="Oval" fill="#800020" fill-rule="nonzero" cx="82" cy="90" r="7"></circle>
            <circle id="Oval" fill="#F77D72" fill-rule="nonzero" cx="203" cy="142" r="8"></circle>
            <circle id="Oval" fill="#2C2E4C" fill-rule="nonzero" cx="124" cy="429" r="6"></circle>
            <circle id="Oval" fill="#575C79" fill-rule="nonzero" cx="95.5" cy="514.5" r="8.5"></circle>
            <circle id="Oval" fill="#F77D72" fill-rule="nonzero" cx="9.5" cy="451.5" r="9.5"></circle>
            <path d="M1044.5,130.5 L1017,161" id="Shape" stroke="#F77D72" stroke-width="11" stroke-linecap="round"></path>
            <circle id="Oval" fill="#2C2E4C" fill-rule="nonzero" cx="1067.5" cy="39.5" r="10.5"></circle>
            <circle id="Oval" fill="#F77D72" fill-rule="nonzero" cx="1316.5" cy="151.5" r="9.5"></circle>
            <circle id="Oval" fill="#575C79" fill-rule="nonzero" cx="1283" cy="30" r="8"></circle>
            <circle id="Oval" fill="#800020" fill-rule="nonzero" cx="1109.5" cy="216.5" r="9.5"></circle>
            <circle id="Oval" fill="#800020" fill-rule="nonzero" cx="1287.5" cy="261.5" r="12.5"></circle>
            <circle id="Oval" fill="#2C2E4C" fill-rule="nonzero" cx="936" cy="262" r="9"></circle>
            <path d="M1175,254 L1191.95,303.78" id="Shape" stroke="#575C79" stroke-width="15" stroke-linecap="round"></path>
            <path d="M1277.78,408.71 L1262.25,446.73" id="Shape" stroke="#F77D72" stroke-width="11" stroke-linecap="round"></path>
            <path d="M1028.07,369.78 L1032.59,410.6" id="Shape" stroke="#F77D72" stroke-width="11" stroke-linecap="round"></path>
            <path d="M1143.62,534.8 L1164.52,583.06" id="Shape" stroke="#F77D72" stroke-width="15" stroke-linecap="round"></path>
            <path d="M1174.69,36.43 L1147.45,81.42" id="Shape" stroke="#800020" stroke-width="15" stroke-linecap="round"></path>
            <circle id="Oval" fill="#800020" fill-rule="nonzero" cx="1049.5" cy="485.5" r="12.5"></circle>
            <circle id="Oval" fill="#800020" fill-rule="nonzero" cx="1245" cy="90" r="7"></circle>
            <circle id="Oval" fill="#F77D72" fill-rule="nonzero" cx="1124" cy="142" r="8"></circle>
            <circle id="Oval" fill="#2C2E4C" fill-rule="nonzero" cx="1203" cy="429" r="6"></circle>
            <circle id="Oval" fill="#575C79" fill-rule="nonzero" cx="1231.5" cy="514.5" r="8.5"></circle>
            <circle id="Oval" fill="#F77D72" fill-rule="nonzero" cx="1317.5" cy="451.5" r="9.5"></circle>
            <path d="M467.5,155.5 L440,186" id="Shape" stroke="#F77D72" stroke-width="11" stroke-linecap="round"></path>
            <circle id="Oval" fill="#2C2E4C" fill-rule="nonzero" cx="490.5" cy="64.5" r="10.5"></circle>
            <circle id="Oval" fill="#F77D72" fill-rule="nonzero" cx="739.5" cy="176.5" r="9.5"></circle>
            <circle id="Oval" fill="#575C79" fill-rule="nonzero" cx="827" cy="115" r="8"></circle>
            <circle id="Oval" fill="#800020" fill-rule="nonzero" cx="532.5" cy="241.5" r="9.5"></circle>
            <circle id="Oval" fill="#800020" fill-rule="nonzero" cx="710.5" cy="286.5" r="12.5"></circle>
            <circle id="Oval" fill="#575C79" fill-rule="nonzero" cx="554.5" cy="394.5" r="9.5"></circle>
            <path d="M598,279 L614.95,328.78" id="Shape" stroke="#800020" stroke-width="15" stroke-linecap="round"></path>
            <path d="M597.69,61.43 L570.45,106.42" id="Shape" stroke="#800020" stroke-width="15" stroke-linecap="round"></path>
            <circle id="Oval" fill="#800020" fill-rule="nonzero" cx="689" cy="84" r="7"></circle>
            <circle id="Oval" fill="#F77D72" fill-rule="nonzero" cx="547" cy="167" r="8"></circle>
            <path d="M650.62,490.8 L671.52,539.06" id="Shape" stroke="#575C79" stroke-width="15" stroke-linecap="round"></path>
            <circle id="Oval" fill="#575C79" fill-rule="nonzero" cx="774.5" cy="530.5" r="8.5"></circle>
            <circle id="Oval" fill="#F77D72" fill-rule="nonzero" cx="782.5" cy="427.5" r="9.5"></circle>
        </g>
    </g>
</svg>